# xmcd CD database file
#
# Track frame offsets:
#	150
#	2227
#	19785
#	35765
#	62392
#	84290
#	100302
#	133732
#	146310
#	165592
#	189252
#	207425
#	232547
#	251330
#	273800
#	301445
#	322935
#
# Disc length: 4573 seconds
#
# Revision: 7
# Processed by: cddbd v1.5.2PL0 Copyright (c) Steve Scherf et al.
# Submitted via: CDex 1.70beta2
#
DISCID=cf11db11
DTITLE=The Rolling Stones - Flashpoint - Live
DYEAR=1991
DGENRE=Rock
TTITLE0=(Intro) Continental Drift
TTITLE1=Start Me Up
TTITLE2=Sad Sad Sad
TTITLE3=Miss You
TTITLE4=Rock And A Hardplace
TTITLE5=Ruby Tuesday
TTITLE6=You Can't Always Get What You Want
TTITLE7=Factory Girl
TTITLE8=Can't Be Seen
TTITLE9=Little Red Rooster
TTITLE10=Paint It Black
TTITLE11=Sympathy For The Devil
TTITLE12=Brown Sugar
TTITLE13=Jumpin' Jack Flash
TTITLE14=(I Can't Get No) Satisfaction
TTITLE15=Highwire
TTITLE16=Sex Drive
EXTD=YEAR: 1991
EXTT0=
EXTT1=
EXTT2=
EXTT3=
EXTT4=
EXTT5=
EXTT6=
EXTT7=
EXTT8=
EXTT9=
EXTT10=
EXTT11=
EXTT12=
EXTT13=
EXTT14=
EXTT15=
EXTT16=
PLAYORDER=
